<svg width="24" height="24" viewBox="0 0 24 24" fill="none" xmlns="http://www.w3.org/2000/svg">
<path fill-rule="evenodd" clip-rule="evenodd" d="M12.3933 4.12907C13.3918 3.1647 14.7291 2.63108 16.1172 2.64314C17.5053 2.65521 18.8331 3.21198 19.8147 4.19356C20.7962 5.17513 21.353 6.50296 21.3651 7.89106C21.3771 9.27916 20.8435 10.6165 19.8792 11.615L19.877 11.6172L19.8648 11.6295L17.3944 14.1C16.8577 14.6368 16.2118 15.0521 15.5005 15.3174C14.7892 15.5827 14.0292 15.692 13.272 15.6377C12.5148 15.5835 11.7781 15.3671 11.1119 15.0031C10.4457 14.6391 9.86557 14.1361 9.41085 13.5282C9.02167 13.0079 9.12795 12.2706 9.64825 11.8814C10.1685 11.4923 10.9058 11.5985 11.295 12.1188C11.5476 12.4566 11.8699 12.736 12.24 12.9382C12.6102 13.1404 13.0194 13.2607 13.4401 13.2908C13.8608 13.3209 14.283 13.2602 14.6782 13.1128C15.0733 12.9654 15.4321 12.7348 15.7303 12.4365L15.7308 12.436L18.1932 9.97357C18.7249 9.41959 19.0189 8.67954 19.0122 7.91151C19.0055 7.14034 18.6962 6.40265 18.1509 5.85734C17.6056 5.31202 16.8679 5.0027 16.0967 4.996C15.3281 4.98932 14.5876 5.28375 14.0335 5.81609L12.6236 7.21784C12.1628 7.67593 11.4179 7.67376 10.9598 7.21299C10.5017 6.75221 10.5039 6.00731 10.9646 5.54921L12.3829 4.13918L12.3933 4.12907ZM11.0897 19.2868C10.0912 20.2511 8.75386 20.7847 7.36576 20.7727C5.97766 20.7606 4.64983 20.2038 3.66826 19.2223C2.68668 18.2407 2.12991 16.9129 2.11785 15.5248C2.10578 14.1367 2.6394 12.7994 3.60377 11.8009L3.6059 11.7987L3.61809 11.7863L6.08853 9.31586C6.62523 8.77898 7.27115 8.36376 7.98241 8.09844C8.69368 7.83311 9.4537 7.72386 10.2109 7.77809C10.9681 7.83232 11.7048 8.04877 12.371 8.41274C13.0372 8.77672 13.6174 9.27972 14.0721 9.88762C14.4613 10.4079 14.355 11.1452 13.8347 11.5344C13.3144 11.9236 12.5771 11.8173 12.1879 11.297C11.9353 10.9593 11.613 10.6798 11.2429 10.4776C10.8728 10.2754 10.4635 10.1551 10.0428 10.125C9.62215 10.0949 9.19992 10.1556 8.80477 10.303C8.40962 10.4504 8.05079 10.6811 7.75262 10.9793L7.75211 10.9798L5.28969 13.4423C4.75805 13.9962 4.46402 14.7363 4.4707 15.5043C4.4774 16.2755 4.78672 17.0132 5.33204 17.5585C5.87736 18.1038 6.61504 18.4131 7.38621 18.4198C8.15477 18.4265 8.89531 18.1321 9.44941 17.5997L10.8594 16.198C11.3201 15.7399 12.065 15.7421 12.5231 16.2028C12.9812 16.6636 12.9791 17.4085 12.5183 17.8666L11.1 19.2767L11.0897 19.2868Z" fill="#161C2F"/>
</svg>
